<svg version="1.2" xmlns="http://www.w3.org/2000/svg" viewBox="0 0 1080 1080" width="1080" height="1080"><style>.a{fill:#fff}.b{fill:#b03afc}</style><path class="a" d="m505.7 1068.8c-2.5-0.2-11.3-0.8-19.7-1.4l-15.2-1.1-17.6-2.5c-56.8-8.2-108.5-24.7-153.2-49.1-16-8.7-22.8-13-39.3-24.7l-15-10.8-13.2-11.5-13.3-11.6-10.6-11.5c-37.9-40.6-64.7-86-83-140.7l-5.9-17.8-4.1-16.6-4.2-16.8-2.9-17.2c-3.4-19.7-5.6-39-7.1-60.3l-1-14.7v-325-325.1h127.1 127.2v162.5 162.7l0.8 0.4 0.7 0.5 3.2-2.2c1.8-1.1 5.8-4 9-6.2 8.1-5.7 10.9-7.4 13.6-8.6 1.3-0.6 3.8-2.2 5.5-3.7 1.7-1.4 4.1-3 5.3-3.4 1.2-0.5 7.4-4.4 13.7-8.6 6.4-4.2 13-8.5 14.6-9.5 11.9-7.2 14.6-9 18.2-11.8 2.3-1.7 4.8-3.5 5.6-3.8 0.8-0.5 2.8-1.6 4.3-2.6 1.4-0.9 5.6-3.4 9.1-5.5 3.4-2.1 8.9-5.6 12-7.9 3-2.2 7.4-4.9 9.6-6.1 2.2-1.3 5.5-3.2 7.1-4.4 1.7-1.2 6.3-4.2 10.1-6.5 6.4-3.9 14.4-9.3 18.9-12.7 1.5-1.2 3.3-2.2 13.6-8 2.9-1.5 6.3-3.8 7.6-5l2.5-2.4 2.4 2.4c1.3 1.2 5.4 3.8 8.8 5.7 3.6 2.1 6.7 4.1 7 4.6 0.3 0.6 1.3 1 2.1 1 0.9 0 2.3 0.7 3.3 1.6 2.5 2.3 24.5 16.6 37.4 24.4 1.7 1 7.2 4.6 12.1 8 4.9 3.3 10.1 6.7 11.5 7.3 3.1 1.6 6.1 3.4 7.9 5.1 0.7 0.6 1.9 1.3 2.6 1.3 0.9 0 2 0.7 2.7 1.5 0.7 0.8 4.9 3.8 9.5 6.8 11.6 7.5 11.9 7.7 15.3 9.5 1.7 0.9 7.2 4.6 12.4 8.1 5 3.5 10.3 6.9 11.6 7.4 1.3 0.5 4.1 2.3 6.3 4 2.1 1.8 4.4 3.2 4.9 3.2 0.5 0 1.4 0.5 2.1 1 1 0.9 7.7 5.4 19.9 13.4 1.4 1 2.9 1.8 3.4 1.8h0.7v-162.6-162.7h127.7 127.7v308.9 308.8l-1 26.4-1 26.5-1.5 14.6c-3 26.6-6.4 45.7-12.9 71.3l-4.1 16.2-5.5 16.3c-18.5 53.6-45.2 98.5-83.3 139.3l-10 10.7-11.5 10.2c-16.2 14.3-26.2 22.1-41.7 32.6-61.4 41.5-135.7 66.7-219.8 74.7l-16.6 1.6-29.9 0.4c-16.4 0.1-31.9 0.1-34.5-0.1zm82.1-143.8c12-7.9 23.8-15.7 26.3-17.3 2.4-1.6 6.1-4.1 8.3-5.5 2.2-1.4 7-4.6 10.8-7.2 3.8-2.5 19.8-13.3 35.7-23.7 40.3-26.6 45.6-30.2 45.6-30.8 0-1-7-6.5-16.2-12.8-4.8-3.2-11.2-7.8-14.2-10-3-2.3-6.6-4.9-7.8-5.7-7.2-4.9-16.2-11.3-24.3-17.4l-9.5-7-26.5 17.6c-14.7 9.7-32 21.1-38.5 25.5l-12 7.8-1 1.9-1 1.9v49.3 49.2l1.3-0.7c0.6-0.4 11.1-7.2 23-15.1zm-69.9-35.3v-49.9l-2.7-2c-5.5-4.1-16.1-11.3-17.1-11.7-0.9-0.4-54.5-35.8-56.7-37.5l-1-0.8-6.8 4.8c-3.8 2.6-12.6 8.9-19.6 13.8-7 5.1-16.5 11.8-21.1 15-12.7 9-25 18.3-25 19 0 0.5 9.4 7.2 15 10.6 0.9 0.6 4.7 3.2 8.5 5.9 3.8 2.6 7.1 4.8 7.4 4.8 0.2 0 9.9 6.3 21.5 14.1 11.5 7.7 32.9 21.9 47.4 31.4 14.5 9.5 28 18.4 29.9 19.8 7.5 5.3 18.8 12.6 19.6 12.6l0.7 0.1zm-171-93.9c2.4-1.7 8.9-6.3 14.6-10.4 5.6-4 16.3-11.7 23.8-17 21-14.9 29.6-21.3 31-23.1l1.3-1.6v-83.8-83.8l-0.6-1.7-0.7-1.6-10.1-7.3c-5.7-3.9-11.8-8.4-13.9-9.8-2.1-1.4-7.5-5.4-12.1-8.7-4.6-3.4-9.2-6.5-10.1-7.1-1-0.5-4.4-3.1-7.8-5.6-3.3-2.5-8.4-6.2-11.3-8-2.9-1.7-5.8-4-6.4-4.8-0.7-0.7-1.6-1.4-2.1-1.4h-0.9v139.4 139.3h0.6c0.3 0 2.4-1.3 4.7-3zm393.9-136.3c0-76.7-0.2-139.4-0.5-139.4-0.7 0-46.1 32.2-47.1 33.5-0.3 0.4-4.9 3.5-10.1 7-5.3 3.7-9.9 6.8-10.2 7.1-0.3 0.3-2 1.7-3.7 3l-3.3 2.2v86.6 86.5l5.8 4.2c3.2 2.2 9.3 6.4 13.4 9.5 4.2 3 10.8 7.7 14.7 10.3 4 2.7 7.6 5.3 8.1 6 0.6 0.6 5.2 4 10.1 7.3 5.1 3.4 11.9 8.3 15.2 10.8 3.4 2.6 6.4 4.7 6.9 4.7h0.7zm-137.3 96.9l16.2-10.8v-86.1-86l-8.6-5.8c-4.7-3.2-22.4-14.8-39.2-26.1l-30.6-20.2-32.7 21.6c-18.1 11.8-35.8 23.7-39.7 26.2l-6.7 4.7 0.2 85.8 0.3 85.8 11.6 7.8c6.4 4.3 24.1 16.1 39.3 26.1l27.8 18.2 22.9-15.2c12.7-8.4 30.3-20 39.2-26zm-144.5-237.7c38.5-25.5 49.2-32.5 52.2-34.3 1.7-1 4-2.6 5-3.7l1.7-1.7-0.2-49.9-0.3-50-14.7 9.6c-8.1 5.4-18.2 12-22.3 14.8-4.2 2.9-17.4 11.7-29.5 19.6-12.1 8-22.6 15-23.4 15.5-8.6 5.8-25.3 16.7-27.8 18.3-1.7 1-9.8 6.4-18.1 11.9l-14.9 9.9 4.4 3.2c5.1 3.6 13.1 9.5 14.5 10.7 0.6 0.4 5.4 3.7 10.7 7.3 5.2 3.6 10.2 7.2 11.1 7.8 2.9 2.3 31.9 23.4 32.4 23.5 0.2 0.1 8.9-5.6 19.2-12.5zm186.6 10.5c3.4-2.9 25.3-18.5 39.9-28.6 6.6-4.6 13.7-9.7 15.7-11.5 2-1.6 5.8-4.3 8.4-6l4.9-3v-1.1-1.1l-17.4-11.5c-9.7-6.3-24.8-16.3-33.6-22.1-8.9-5.9-16.8-11.2-17.7-11.8-0.8-0.5-14.8-9.8-31-20.6-16.2-10.7-31.1-20.4-33.1-21.8-1.9-1.2-3.9-2.6-4.5-3-0.5-0.5-3.8-2.6-7.1-4.9l-6.1-3.9-0.3 49.2-0.2 49.2 1 1.9 1 2 20.5 13.4c11.2 7.4 28.5 18.9 38.2 25.3 9.8 6.6 18 11.9 18.3 12 0.3 0 1.7-1 3.1-2.1z"/><path class="b" d="m508.8 939.6c-5.9-3.8-12.3-8.2-14.2-9.5-1.9-1.4-15.4-10.4-29.9-19.9-14.5-9.5-35.9-23.7-47.4-31.4-11.6-7.8-21.3-14.1-21.5-14.1-0.3 0-3.7-2.1-7.4-4.7-3.9-2.8-7.6-5.3-8.5-5.9-6.9-4.3-19.1-12.9-19.1-13.6 0-0.9 12.2-10.1 28.1-21.4 5-3.6 15.1-10.6 22.1-15.7 7.1-5 16.2-11.5 20.4-14.5l7.7-5.5 1.7 0.5c1 0.2 14.7 9.1 30.6 19.6 15.8 10.5 29.3 19.4 29.8 19.6 1 0.4 11.5 7.6 17 11.6l2.7 2v55.1 55l-0.7-0.1c-0.5 0-5.6-3.2-11.4-7.1z"/><path class="b" d="m561.1 945.2l-0.6-1.6v-52.1-52.2l1-1.9 1-2 11.9-7.8c6.5-4.3 24.2-16 39.2-25.9l27.3-18.1h1.7 1.8l9.9 7.4c9.2 6.9 19.6 14.2 25.1 18 1.2 0.8 5.5 3.8 9.4 6.7 3.8 2.9 10.4 7.7 14.6 10.6 12.6 8.8 18.2 13.2 18.2 14.2 0 0.9-6.3 5.3-49.2 33.4-16.1 10.8-32.4 21.6-36.1 24.2-3.9 2.5-8.7 5.7-10.9 7.2-2.1 1.4-5.9 3.8-8.3 5.4-21.9 14.6-54.6 36.1-55 36.1-0.2 0-0.7-0.7-1-1.6z"/><path class="b" d="m339.2 804.2l-0.7-0.6v-144.2-144.2l1.1-0.6 1-0.7 3.4 2.4c1.8 1.2 6.1 4.2 9.3 6.4 3.4 2.2 8.7 6.1 12.1 8.6 3.3 2.5 6.8 5.1 7.8 5.6 0.9 0.6 5.4 3.7 10 7.1 4.7 3.3 10 7.3 12.2 8.7 2 1.4 8.2 5.9 13.8 9.8l10.2 7.3 0.6 1.6 0.6 1.7v86.8 86.9l-1.2 1.6c-1.4 1.8-10 8.2-31 23.1-7.5 5.3-18.1 12.9-23.5 16.7-5.5 4-13 9.2-16.7 12-6.8 4.8-7.9 5.2-9 4z"/><path class="b" d="m732.2 798.7c-4.4-3.3-12.1-8.9-17.2-12.2-5-3.5-9.5-6.8-10.1-7.4-0.5-0.7-4.2-3.4-8.1-6-3.9-2.6-10.6-7.3-14.7-10.3-4.2-3.1-10.3-7.3-13.4-9.6l-5.9-4.1v-89.6-89.6l3.4-2.2c1.7-1.3 3.4-2.7 3.7-3 0.3-0.3 4.9-3.4 10.1-7.1 5.3-3.5 9.9-6.7 10.2-7 0.6-0.8 27.2-19.9 41.6-29.9l10.2-7 1 1.4 0.9 1.5-0.3 143.9-0.2 143.9-1.5 0.2-1.6 0.2z"/><path class="b" d="m511.3 782.9c-15.6-10.3-33.6-22.3-40-26.5l-11.7-7.8-0.3-88.9-0.2-88.9 6.8-4.6c19.9-13.6 74.4-49.1 75.4-49.1 1 0 16.7 10.2 72.9 47.5l8.6 5.8v89.1 89.2l-16.8 11.1c-9.3 6.2-27.3 18.2-40.1 26.7l-23.3 15.4-1.5-0.1h-1.4z"/><path class="b" d="m436.2 533.6c-5.4-3.5-32.2-22.9-32.8-23.6-0.3-0.3-4.9-3.4-10.2-7.1-5.2-3.5-10-6.9-10.6-7.3-0.5-0.4-2.3-1.8-4.1-3.1-1.6-1.3-5.9-4.4-9.6-6.9-6.5-4.4-8.1-5.8-8.1-7.2 0-0.6 26-18.3 35.9-24.5 2.4-1.6 18.6-12.3 27.8-18.4 0.8-0.5 11.3-7.5 23.4-15.5 12-7.9 25.3-16.7 29.5-19.5 22.5-15.2 41.1-27.3 42.3-27.3h1.2v54.6 54.8l-3.2 2.3c-1.8 1.3-4.1 2.8-5 3.3-2.1 1.3-26.9 17.9-51.1 33.9-10.5 7.1-19.7 13.2-20.3 13.6l-1.2 0.7z"/><path class="b" d="m622.7 523.4c-10.6-7.1-28.5-19-39.7-26.4l-20.5-13.3-1-2.1-1-1.9v-52.5-52.5l0.8-1.3 0.8-1.2 9.1 5.8c5 3.2 9.2 6 9.5 6.4 0.3 0.3 2.2 1.5 4.1 2.7 1.9 1.3 16.8 11 33 21.8 16.2 10.7 30.2 20 31 20.5 0.9 0.7 6.1 4.1 11.7 7.8 5.5 3.6 21.5 14.2 35.6 23.6l25.5 16.8v1.5 1.5h-0.8c-0.5 0-2 0.9-3.4 2.1-1.2 1.2-3.9 3.1-5.9 4.2-2 1.2-5.2 3.6-7.2 5.3-2.1 1.7-9.2 6.9-15.7 11.4-12.3 8.5-36.6 25.9-38.5 27.4-1.7 1.4-7.4 5.4-7.8 5.4-0.1 0-9-5.9-19.6-13z"/></svg>